<svg xmlns="http://www.w3.org/2000/svg" xmlns:xlink="http://www.w3.org/1999/xlink" width="450" zoomAndPan="magnify" viewBox="0 0 337.5 337.500003" height="450" preserveAspectRatio="xMidYMid meet" version="1.0"><defs><clipPath id="b6cb46abb6"><path d="M 4.335938 39.890625 L 332.835938 39.890625 L 332.835938 297.890625 L 4.335938 297.890625 Z M 4.335938 39.890625 " clip-rule="nonzero"/></clipPath></defs><g clip-path="url(#b6cb46abb6)"><path fill="#bdbdbd" d="M 141.894531 256.847656 L 135.78125 202.703125 L 128.582031 202.902344 L 121.375 202.703125 L 115.582031 256.847656 L 98.328125 173.648438 C 104.957031 177.066406 113.507812 180.386719 123.085938 181.609375 C 120.957031 183.417969 119.570312 186.125 119.570312 189.1875 C 119.570312 194.652344 123.875 199.09375 129.183594 199.09375 C 134.496094 199.09375 138.800781 194.652344 138.800781 189.1875 C 138.800781 186.285156 137.566406 183.703125 135.625 181.898438 C 145.050781 181.070312 153.6875 177.007812 160.792969 173.648438 Z M 327.265625 287.304688 L 303.867188 287.304688 L 303.867188 223.320312 C 303.867188 221.917969 303.3125 220.574219 302.320312 219.582031 L 268.957031 186.148438 C 270.691406 183.144531 271.699219 179.667969 271.699219 175.953125 C 271.699219 164.699219 262.5625 155.539062 251.328125 155.539062 C 240.09375 155.539062 230.957031 164.699219 230.957031 175.953125 C 230.957031 187.214844 240.09375 196.371094 251.328125 196.371094 C 255.035156 196.371094 258.5 195.359375 261.496094 193.621094 L 293.316406 225.507812 L 293.316406 287.304688 L 222.582031 287.304688 L 222.582031 233.234375 C 222.582031 214.488281 219.441406 202.644531 202.257812 189.894531 C 192.984375 183.015625 176.3125 173.796875 164.25 167.417969 C 182.464844 154.71875 193.519531 133.046875 193.519531 109.234375 C 193.519531 71.007812 164.828125 39.910156 129.5625 39.910156 C 94.292969 39.910156 65.601562 71.007812 65.601562 109.234375 C 65.601562 133.046875 76.65625 154.714844 94.871094 167.417969 C 82.820312 173.789062 66.164062 182.996094 56.863281 189.894531 C 39.683594 202.644531 36.539062 214.488281 36.539062 233.234375 L 36.539062 287.304688 L 9.835938 287.304688 C 6.921875 287.304688 4.5625 289.667969 4.5625 292.585938 C 4.5625 295.507812 6.921875 297.875 9.835938 297.875 L 327.265625 297.875 C 330.175781 297.875 332.539062 295.507812 332.539062 292.585938 C 332.539062 289.667969 330.175781 287.304688 327.265625 287.304688 " fill-opacity="1" fill-rule="nonzero"/></g></svg>