<svg xmlns="http://www.w3.org/2000/svg" xmlns:xlink="http://www.w3.org/1999/xlink" width="450" zoomAndPan="magnify" viewBox="0 0 337.5 599.999999" height="800" preserveAspectRatio="xMidYMid meet" version="1.0"><defs><filter x="0%" y="0%" width="100%" height="100%" id="4cd23d17ed"><feColorMatrix values="0 0 0 0 1 0 0 0 0 1 0 0 0 0 1 0 0 0 1 0" color-interpolation-filters="sRGB"/></filter><clipPath id="c1306f5ccd"><path d="M 0 0.445312 L 337 0.445312 L 337 599.554688 L 0 599.554688 Z M 0 0.445312 " clip-rule="nonzero"/></clipPath><mask id="661036b7cb"><g filter="url(#4cd23d17ed)"><rect x="-33.75" width="405" fill="#000000" y="-60" height="719.999999" fill-opacity="0.2863"/></g></mask><clipPath id="be9fe9d45f"><path d="M 22 1 L 337 1 L 337 154 L 22 154 Z M 22 1 " clip-rule="nonzero"/></clipPath><clipPath id="c6f9b6f655"><path d="M 323 102 L 337 102 L 337 220 L 323 220 Z M 323 102 " clip-rule="nonzero"/></clipPath><clipPath id="005f12f6a0"><path d="M 0 99 L 319 99 L 319 389 L 0 389 Z M 0 99 " clip-rule="nonzero"/></clipPath><clipPath id="2da3f39f21"><rect x="0" width="337" y="0" height="391"/></clipPath></defs><g clip-path="url(#c1306f5ccd)"><path fill="#ffffff" d="M 0 0.445312 L 337.5 0.445312 L 337.5 1813.945312 L 0 1813.945312 Z M 0 0.445312 " fill-opacity="1" fill-rule="nonzero"/><path fill="#ffffff" d="M 0 0.445312 L 337.5 0.445312 L 337.5 600.445312 L 0 600.445312 Z M 0 0.445312 " fill-opacity="1" fill-rule="nonzero"/><path fill="#000000" d="M 0 0.445312 L 337.5 0.445312 L 337.5 600.445312 L 0 600.445312 Z M 0 0.445312 " fill-opacity="1" fill-rule="nonzero"/></g><g mask="url(#661036b7cb)"><g transform="matrix(1, 0, 0, 1, 0, 105)"><g clip-path="url(#2da3f39f21)"><path fill="#a6a6a6" d="M 152.132812 141.496094 L 152.21875 141.496094 L 152.566406 140.453125 Z M 152.132812 141.496094 " fill-opacity="1" fill-rule="nonzero"/><g clip-path="url(#be9fe9d45f)"><path fill="#a6a6a6" d="M 241.953125 95.648438 L 342.351562 95.648438 L 384.746094 77.964844 L 204.933594 1.785156 L 22.429688 77.964844 L 57.800781 92.699219 L 108.867188 114.019531 L 109.128906 114.195312 L 154.992188 133.347656 C 155.167969 133.433594 155.339844 133.433594 155.511719 133.519531 C 162.390625 135.269531 168.867188 137.984375 174.933594 141.667969 C 175.035156 141.65625 175.121094 141.683594 175.195312 141.753906 L 203.542969 153.542969 L 297.699219 114.28125 C 298.054688 114.082031 298.433594 113.941406 298.828125 113.847656 L 321.542969 104.3125 L 241.953125 104.3125 C 241.667969 104.308594 241.390625 104.277344 241.113281 104.21875 C 240.835938 104.160156 240.566406 104.074219 240.304688 103.964844 C 240.042969 103.855469 239.796875 103.722656 239.5625 103.5625 C 239.324219 103.402344 239.109375 103.226562 238.90625 103.023438 C 238.707031 102.824219 238.527344 102.605469 238.371094 102.371094 C 238.210938 102.136719 238.078125 101.890625 237.964844 101.628906 C 237.855469 101.367188 237.769531 101.097656 237.710938 100.820312 C 237.652344 100.542969 237.621094 100.261719 237.617188 99.980469 C 237.617188 99.695312 237.648438 99.414062 237.703125 99.136719 C 237.757812 98.855469 237.84375 98.585938 237.949219 98.324219 C 238.058594 98.0625 238.195312 97.8125 238.351562 97.574219 C 238.511719 97.339844 238.691406 97.121094 238.890625 96.917969 C 239.09375 96.71875 239.3125 96.539062 239.546875 96.382812 C 239.785156 96.222656 240.035156 96.089844 240.296875 95.980469 C 240.558594 95.871094 240.828125 95.789062 241.109375 95.730469 C 241.386719 95.675781 241.667969 95.648438 241.953125 95.648438 Z M 171.378906 39.050781 L 69.332031 81.953125 C 68.8125 82.195312 68.261719 82.3125 67.6875 82.300781 C 67.261719 82.308594 66.84375 82.253906 66.4375 82.136719 C 66.03125 82.019531 65.648438 81.84375 65.292969 81.613281 C 64.9375 81.378906 64.625 81.101562 64.351562 80.773438 C 64.078125 80.449219 63.863281 80.089844 63.699219 79.699219 C 63.585938 79.4375 63.5 79.167969 63.4375 78.890625 C 63.378906 78.609375 63.347656 78.328125 63.34375 78.042969 C 63.335938 77.757812 63.359375 77.476562 63.410156 77.195312 C 63.460938 76.914062 63.539062 76.640625 63.644531 76.375 C 63.75 76.109375 63.878906 75.855469 64.03125 75.617188 C 64.1875 75.378906 64.363281 75.15625 64.5625 74.949219 C 64.757812 74.742188 64.976562 74.558594 65.207031 74.394531 C 65.441406 74.234375 65.691406 74.09375 65.953125 73.980469 L 167.996094 31.078125 C 168.257812 30.964844 168.523438 30.875 168.800781 30.816406 C 169.074219 30.753906 169.355469 30.71875 169.636719 30.714844 C 169.921875 30.710938 170.203125 30.730469 170.480469 30.785156 C 170.757812 30.835938 171.027344 30.910156 171.292969 31.015625 C 171.554688 31.121094 171.804688 31.253906 172.039062 31.40625 C 172.277344 31.5625 172.496094 31.738281 172.695312 31.9375 C 172.898438 32.136719 173.078125 32.351562 173.234375 32.589844 C 173.390625 32.824219 173.523438 33.070312 173.632812 33.332031 C 173.746094 33.59375 173.832031 33.863281 173.890625 34.144531 C 173.953125 34.421875 173.984375 34.703125 173.988281 34.988281 C 173.992188 35.273438 173.96875 35.558594 173.917969 35.835938 C 173.867188 36.117188 173.789062 36.390625 173.6875 36.65625 C 173.582031 36.921875 173.453125 37.175781 173.296875 37.414062 C 173.144531 37.65625 172.96875 37.878906 172.769531 38.082031 C 172.570312 38.289062 172.355469 38.472656 172.121094 38.636719 C 171.886719 38.800781 171.640625 38.9375 171.378906 39.050781 Z M 171.378906 39.050781 " fill-opacity="1" fill-rule="nonzero"/></g><g clip-path="url(#c6f9b6f655)"><path fill="#a6a6a6" d="M 355.617188 180.753906 C 356.597656 179.886719 357.480469 178.925781 358.257812 177.871094 C 359.035156 176.816406 359.695312 175.691406 360.230469 174.496094 C 360.769531 173.300781 361.175781 172.058594 361.449219 170.777344 C 361.726562 169.496094 361.859375 168.199219 361.859375 166.886719 C 361.855469 165.847656 361.769531 164.816406 361.59375 163.792969 C 361.421875 162.769531 361.164062 161.765625 360.820312 160.785156 C 360.480469 159.804688 360.058594 158.859375 359.558594 157.945312 C 359.058594 157.035156 358.488281 156.171875 357.84375 155.355469 C 357.199219 154.542969 356.492188 153.785156 355.71875 153.085938 C 354.949219 152.390625 354.128906 151.761719 353.25 151.199219 C 352.375 150.640625 351.460938 150.15625 350.503906 149.75 C 349.546875 149.34375 348.5625 149.019531 347.554688 148.773438 L 347.554688 102.839844 L 338.882812 106.480469 L 338.882812 148.773438 C 337.871094 149.019531 336.890625 149.34375 335.933594 149.75 C 334.976562 150.15625 334.0625 150.640625 333.183594 151.199219 C 332.308594 151.761719 331.488281 152.390625 330.714844 153.085938 C 329.945312 153.785156 329.238281 154.542969 328.59375 155.355469 C 327.949219 156.171875 327.378906 157.035156 326.878906 157.945312 C 326.378906 158.859375 325.957031 159.804688 325.617188 160.785156 C 325.273438 161.765625 325.015625 162.769531 324.84375 163.792969 C 324.667969 164.816406 324.578125 165.847656 324.578125 166.886719 C 324.574219 168.210938 324.710938 169.515625 324.988281 170.808594 C 325.265625 172.101562 325.675781 173.351562 326.222656 174.554688 C 326.769531 175.757812 327.4375 176.890625 328.226562 177.949219 C 329.015625 179.011719 329.910156 179.972656 330.90625 180.84375 L 323.363281 214.382812 C 323.242188 215.023438 323.253906 215.660156 323.40625 216.296875 C 323.558594 216.929688 323.832031 217.507812 324.230469 218.023438 C 324.644531 218.535156 325.144531 218.9375 325.738281 219.226562 C 326.328125 219.515625 326.953125 219.660156 327.613281 219.667969 L 359.863281 219.667969 C 360.539062 219.671875 361.179688 219.527344 361.785156 219.242188 C 362.394531 218.953125 362.910156 218.546875 363.332031 218.023438 C 363.71875 217.484375 363.980469 216.890625 364.117188 216.242188 C 364.253906 215.59375 364.25 214.945312 364.113281 214.296875 Z M 343.652344 156.921875 C 343.363281 157.042969 343.074219 157.042969 342.785156 156.921875 Z M 343.652344 156.921875 " fill-opacity="1" fill-rule="nonzero"/></g><path fill="#a6a6a6" d="M 174.933594 141.667969 L 155.511719 133.519531 C 162.390625 135.269531 168.867188 137.984375 174.933594 141.667969 Z M 174.933594 141.667969 " fill-opacity="1" fill-rule="nonzero"/><path fill="#a6a6a6" d="M 304.03125 222.617188 L 304.03125 224.957031 L 302.035156 226.257812 C 302.652344 225.855469 303.140625 225.332031 303.492188 224.6875 C 303.847656 224.042969 304.023438 223.351562 304.03125 222.617188 Z M 304.03125 222.617188 " fill-opacity="1" fill-rule="nonzero"/><path fill="#a6a6a6" d="M 174.933594 141.667969 L 155.511719 133.519531 C 162.390625 135.269531 168.867188 137.984375 174.933594 141.667969 Z M 174.933594 141.667969 " fill-opacity="1" fill-rule="nonzero"/><path fill="#a6a6a6" d="M 304.03125 222.617188 L 304.03125 224.957031 L 302.035156 226.257812 C 302.652344 225.855469 303.140625 225.332031 303.492188 224.6875 C 303.847656 224.042969 304.023438 223.351562 304.03125 222.617188 Z M 304.03125 222.617188 " fill-opacity="1" fill-rule="nonzero"/><path fill="#a6a6a6" d="M 174.933594 141.667969 L 155.511719 133.519531 C 162.390625 135.269531 168.867188 137.984375 174.933594 141.667969 Z M 174.933594 141.667969 " fill-opacity="1" fill-rule="nonzero"/><path fill="#a6a6a6" d="M 205.191406 162.296875 C 204.660156 162.492188 204.113281 162.609375 203.542969 162.640625 C 202.949219 162.609375 202.371094 162.496094 201.8125 162.296875 L 171.292969 149.46875 L 152.21875 141.496094 L 152.132812 141.496094 L 111.644531 124.59375 L 111.644531 220.277344 C 117.90625 224.199219 124.390625 227.703125 131.101562 230.792969 C 137.816406 233.882812 144.695312 236.53125 151.746094 238.738281 C 158.796875 240.949219 165.960938 242.695312 173.238281 243.988281 C 180.511719 245.277344 187.839844 246.097656 195.222656 246.449219 L 197.5625 246.539062 C 199.816406 246.625 201.8125 246.625 203.542969 246.625 C 211.621094 246.609375 219.65625 246.03125 227.652344 244.898438 C 235.648438 243.765625 243.53125 242.085938 251.292969 239.859375 C 259.054688 237.632812 266.628906 234.878906 274.007812 231.597656 C 281.386719 228.320312 288.503906 224.546875 295.359375 220.277344 L 295.359375 124.679688 Z M 139.472656 215.335938 C 139.476562 215.621094 139.449219 215.90625 139.398438 216.183594 C 139.34375 216.464844 139.261719 216.738281 139.15625 217 C 139.046875 217.265625 138.914062 217.515625 138.757812 217.753906 C 138.597656 217.992188 138.417969 218.210938 138.214844 218.414062 C 138.015625 218.613281 137.792969 218.792969 137.558594 218.953125 C 137.320312 219.109375 137.066406 219.242188 136.804688 219.351562 C 136.539062 219.460938 136.265625 219.539062 135.988281 219.59375 C 135.707031 219.648438 135.425781 219.671875 135.136719 219.667969 C 134.855469 219.667969 134.574219 219.640625 134.292969 219.585938 C 134.015625 219.527344 133.742188 219.445312 133.480469 219.335938 C 133.21875 219.226562 132.96875 219.09375 132.734375 218.9375 C 132.496094 218.777344 132.277344 218.597656 132.078125 218.398438 C 131.875 218.195312 131.695312 217.976562 131.539062 217.742188 C 131.378906 217.503906 131.246094 217.253906 131.136719 216.992188 C 131.027344 216.730469 130.945312 216.460938 130.890625 216.179688 C 130.832031 215.902344 130.804688 215.621094 130.804688 215.335938 L 130.804688 156.140625 C 130.804688 155.855469 130.832031 155.574219 130.890625 155.296875 C 130.945312 155.019531 131.027344 154.746094 131.136719 154.484375 C 131.246094 154.222656 131.378906 153.972656 131.539062 153.738281 C 131.695312 153.5 131.875 153.28125 132.078125 153.082031 C 132.277344 152.878906 132.496094 152.699219 132.734375 152.542969 C 132.96875 152.382812 133.21875 152.25 133.480469 152.140625 C 133.742188 152.03125 134.015625 151.949219 134.292969 151.894531 C 134.574219 151.835938 134.855469 151.808594 135.136719 151.808594 C 135.425781 151.804688 135.707031 151.832031 135.988281 151.882812 C 136.265625 151.9375 136.539062 152.019531 136.804688 152.125 C 137.066406 152.234375 137.320312 152.367188 137.558594 152.523438 C 137.792969 152.683594 138.015625 152.863281 138.214844 153.066406 C 138.417969 153.265625 138.597656 153.488281 138.757812 153.722656 C 138.914062 153.960938 139.046875 154.210938 139.15625 154.476562 C 139.261719 154.742188 139.34375 155.011719 139.398438 155.292969 C 139.449219 155.574219 139.476562 155.855469 139.472656 156.140625 Z M 139.472656 215.335938 " fill-opacity="1" fill-rule="nonzero"/><g clip-path="url(#005f12f6a0)"><path fill="#a6a6a6" d="M 317.988281 233.449219 C 317.730469 235.445312 317.382812 237.261719 316.949219 239.257812 L 316.6875 240.558594 C 316.496094 241.546875 316.230469 242.515625 315.886719 243.460938 C 315.546875 244.410156 315.132812 245.324219 314.648438 246.210938 C 314.164062 247.09375 313.617188 247.933594 313.003906 248.734375 C 312.386719 249.53125 311.714844 250.277344 310.988281 250.972656 C 310.257812 251.667969 309.476562 252.300781 308.648438 252.875 C 307.820312 253.449219 306.953125 253.957031 306.046875 254.398438 C 305.140625 254.835938 304.207031 255.203125 303.242188 255.5 C 302.28125 255.796875 301.300781 256.015625 300.300781 256.15625 L 252.789062 262.746094 C 252.386719 262.796875 251.992188 262.871094 251.597656 262.96875 C 251.203125 263.066406 250.816406 263.1875 250.4375 263.328125 C 250.058594 263.472656 249.6875 263.636719 249.328125 263.820312 C 248.964844 264.003906 248.617188 264.210938 248.28125 264.433594 C 247.941406 264.660156 247.621094 264.902344 247.308594 265.164062 C 247 265.425781 246.707031 265.707031 246.429688 266 C 246.152344 266.296875 245.894531 266.609375 245.652344 266.933594 C 245.410156 267.257812 245.1875 267.597656 244.984375 267.949219 C 244.785156 268.296875 244.601562 268.660156 244.441406 269.03125 C 244.277344 269.402344 244.140625 269.785156 244.023438 270.171875 C 243.90625 270.558594 243.808594 270.953125 243.738281 271.351562 C 243.664062 271.75 243.617188 272.152344 243.589844 272.554688 C 243.5625 272.960938 243.5625 273.363281 243.582031 273.769531 C 243.601562 274.175781 243.644531 274.574219 243.710938 274.976562 C 243.777344 275.375 243.867188 275.769531 243.980469 276.160156 C 244.089844 276.550781 244.226562 276.929688 244.378906 277.304688 L 262.152344 321.074219 C 262.535156 322.003906 262.84375 322.960938 263.078125 323.941406 C 263.308594 324.921875 263.464844 325.914062 263.542969 326.921875 C 263.621094 327.925781 263.625 328.929688 263.546875 329.933594 C 263.46875 330.941406 263.3125 331.933594 263.082031 332.914062 C 262.851562 333.894531 262.542969 334.851562 262.164062 335.785156 C 261.785156 336.71875 261.332031 337.617188 260.8125 338.480469 C 260.292969 339.34375 259.707031 340.160156 259.0625 340.933594 C 258.414062 341.707031 257.710938 342.421875 256.953125 343.085938 C 254.871094 344.90625 252.703125 346.726562 250.535156 348.375 C 249.757812 348.992188 248.933594 349.550781 248.066406 350.042969 C 247.199219 350.539062 246.300781 350.960938 245.371094 351.316406 C 244.441406 351.671875 243.488281 351.957031 242.511719 352.164062 C 241.539062 352.375 240.554688 352.507812 239.558594 352.566406 C 238.5625 352.625 237.570312 352.605469 236.578125 352.511719 C 235.585938 352.414062 234.605469 352.246094 233.640625 352 C 232.671875 351.753906 231.730469 351.4375 230.8125 351.046875 C 229.898438 350.65625 229.015625 350.199219 228.167969 349.671875 L 188.113281 324.539062 C 187.769531 324.320312 187.414062 324.121094 187.046875 323.941406 C 186.683594 323.761719 186.308594 323.601562 185.921875 323.464844 C 185.539062 323.332031 185.148438 323.21875 184.75 323.125 C 184.351562 323.035156 183.949219 322.96875 183.546875 322.921875 C 183.140625 322.878906 182.734375 322.855469 182.328125 322.859375 C 181.917969 322.859375 181.511719 322.886719 181.109375 322.933594 C 180.703125 322.984375 180.300781 323.054688 179.90625 323.152344 C 179.507812 323.246094 179.121094 323.363281 178.738281 323.503906 C 178.355469 323.644531 177.980469 323.804688 177.617188 323.988281 C 177.25 324.171875 176.898438 324.375 176.558594 324.601562 C 176.21875 324.824219 175.890625 325.066406 175.578125 325.328125 C 175.265625 325.589844 174.96875 325.867188 174.6875 326.164062 C 174.40625 326.460938 174.144531 326.769531 173.898438 327.097656 C 173.65625 327.421875 173.429688 327.761719 173.226562 328.113281 C 173.019531 328.464844 172.835938 328.828125 172.671875 329.203125 C 172.507812 329.574219 172.367188 329.957031 172.246094 330.347656 L 157.765625 375.066406 C 157.464844 376.023438 157.089844 376.949219 156.640625 377.84375 C 156.191406 378.742188 155.679688 379.597656 155.097656 380.414062 C 154.515625 381.230469 153.875 381.996094 153.171875 382.714844 C 152.472656 383.429688 151.71875 384.089844 150.914062 384.6875 C 150.109375 385.285156 149.265625 385.820312 148.378906 386.285156 C 147.492188 386.753906 146.574219 387.148438 145.625 387.472656 C 144.675781 387.796875 143.707031 388.042969 142.71875 388.214844 C 141.730469 388.390625 140.734375 388.484375 139.734375 388.5 C 138.433594 388.585938 136.960938 388.585938 135.484375 388.585938 C 134.097656 388.585938 132.625 388.585938 131.148438 388.5 C 130.15625 388.476562 129.167969 388.375 128.1875 388.199219 C 127.207031 388.019531 126.246094 387.765625 125.304688 387.441406 C 124.367188 387.113281 123.457031 386.714844 122.578125 386.246094 C 121.699219 385.777344 120.863281 385.246094 120.066406 384.644531 C 119.269531 384.046875 118.527344 383.390625 117.832031 382.675781 C 117.136719 381.960938 116.503906 381.199219 115.929688 380.386719 C 115.355469 379.574219 114.84375 378.722656 114.402344 377.828125 C 113.960938 376.9375 113.589844 376.015625 113.289062 375.066406 L 98.8125 330.347656 C 98.570312 329.5625 98.242188 328.820312 97.828125 328.113281 C 97.414062 327.40625 96.925781 326.757812 96.359375 326.164062 C 95.796875 325.570312 95.171875 325.046875 94.488281 324.597656 C 93.804688 324.148438 93.078125 323.78125 92.308594 323.5 C 91.542969 323.214844 90.753906 323.027344 89.941406 322.925781 C 89.128906 322.828125 88.316406 322.824219 87.503906 322.914062 C 86.691406 323.003906 85.898438 323.1875 85.128906 323.460938 C 84.359375 323.734375 83.632812 324.09375 82.945312 324.539062 L 42.890625 349.671875 C 42.042969 350.199219 41.160156 350.65625 40.242188 351.046875 C 39.328125 351.4375 38.382812 351.753906 37.417969 352 C 36.453125 352.246094 35.472656 352.417969 34.480469 352.511719 C 33.488281 352.605469 32.496094 352.625 31.5 352.566406 C 30.503906 352.507812 29.519531 352.375 28.542969 352.167969 C 27.570312 351.957031 26.617188 351.675781 25.6875 351.320312 C 24.753906 350.964844 23.855469 350.539062 22.988281 350.042969 C 22.125 349.550781 21.300781 348.992188 20.519531 348.375 C 18.355469 346.726562 16.1875 344.90625 14.105469 343.085938 C 13.347656 342.425781 12.644531 341.710938 12 340.945312 C 11.351562 340.175781 10.769531 339.359375 10.25 338.5 C 9.730469 337.640625 9.28125 336.746094 8.902344 335.816406 C 8.519531 334.886719 8.214844 333.933594 7.984375 332.957031 C 7.75 331.980469 7.597656 330.992188 7.519531 329.992188 C 7.441406 328.988281 7.441406 327.988281 7.519531 326.988281 C 7.597656 325.984375 7.753906 324.996094 7.984375 324.019531 C 8.214844 323.042969 8.523438 322.089844 8.902344 321.160156 L 26.675781 277.304688 C 26.992188 276.554688 27.21875 275.777344 27.355469 274.976562 C 27.488281 274.171875 27.53125 273.367188 27.480469 272.554688 C 27.425781 271.742188 27.28125 270.945312 27.042969 270.167969 C 26.804688 269.386719 26.480469 268.648438 26.070312 267.945312 C 25.660156 267.242188 25.175781 266.597656 24.617188 266.007812 C 24.0625 265.414062 23.445312 264.894531 22.769531 264.445312 C 22.09375 263.996094 21.375 263.625 20.613281 263.339844 C 19.855469 263.050781 19.070312 262.855469 18.265625 262.746094 L -29.246094 256.15625 C -30.242188 256.015625 -31.222656 255.796875 -32.1875 255.5 C -33.148438 255.203125 -34.085938 254.835938 -34.992188 254.398438 C -35.898438 253.957031 -36.765625 253.449219 -37.59375 252.875 C -38.421875 252.300781 -39.199219 251.667969 -39.929688 250.972656 C -40.660156 250.277344 -41.332031 249.53125 -41.945312 248.734375 C -42.558594 247.933594 -43.109375 247.09375 -43.589844 246.207031 C -44.074219 245.324219 -44.488281 244.410156 -44.832031 243.460938 C -45.171875 242.515625 -45.4375 241.546875 -45.632812 240.558594 C -46.238281 237.871094 -46.585938 235.703125 -47.019531 233.449219 C -47.179688 232.441406 -47.265625 231.421875 -47.273438 230.398438 C -47.277344 229.378906 -47.207031 228.359375 -47.054688 227.347656 C -46.902344 226.335938 -46.675781 225.339844 -46.371094 224.363281 C -46.0625 223.386719 -45.6875 222.441406 -45.234375 221.519531 C -44.78125 220.601562 -44.261719 219.726562 -43.675781 218.886719 C -43.089844 218.046875 -42.441406 217.261719 -41.730469 216.523438 C -41.019531 215.785156 -40.257812 215.105469 -39.445312 214.484375 C -38.632812 213.867188 -37.773438 213.3125 -36.875 212.824219 L 5.523438 190.464844 C 6.246094 190.082031 6.914062 189.621094 7.53125 189.085938 C 8.148438 188.550781 8.699219 187.953125 9.179688 187.292969 C 9.660156 186.632812 10.0625 185.925781 10.378906 185.171875 C 10.699219 184.417969 10.929688 183.640625 11.070312 182.835938 C 11.332031 181.207031 11.226562 179.605469 10.753906 178.023438 C 10.28125 176.441406 9.492188 175.042969 8.382812 173.824219 L -24.214844 137.769531 C -24.890625 137.015625 -25.5 136.214844 -26.050781 135.371094 C -26.601562 134.523438 -27.085938 133.640625 -27.5 132.71875 C -27.914062 131.796875 -28.253906 130.851562 -28.523438 129.878906 C -28.789062 128.90625 -28.980469 127.917969 -29.097656 126.914062 C -29.214844 125.910156 -29.25 124.90625 -29.210938 123.898438 C -29.171875 122.886719 -29.058594 121.886719 -28.863281 120.898438 C -28.667969 119.90625 -28.402344 118.9375 -28.058594 117.988281 C -27.714844 117.039062 -27.300781 116.121094 -26.816406 115.234375 C -25.691406 113.242188 -24.5625 111.246094 -23.347656 109.339844 C -22.835938 108.464844 -22.257812 107.632812 -21.613281 106.847656 C -20.972656 106.0625 -20.273438 105.332031 -19.515625 104.65625 C -18.757812 103.980469 -17.953125 103.367188 -17.101562 102.8125 C -16.25 102.261719 -15.359375 101.78125 -14.433594 101.367188 C -13.507812 100.953125 -12.550781 100.613281 -11.574219 100.351562 C -10.59375 100.085938 -9.597656 99.898438 -8.589844 99.785156 C -7.578125 99.675781 -6.566406 99.644531 -5.554688 99.691406 C -4.539062 99.738281 -3.535156 99.863281 -2.542969 100.066406 L 45.144531 110.378906 C 45.941406 110.542969 46.746094 110.613281 47.5625 110.59375 C 48.375 110.570312 49.175781 110.460938 49.964844 110.257812 C 50.753906 110.054688 51.507812 109.765625 52.230469 109.390625 C 52.953125 109.015625 53.625 108.566406 54.246094 108.039062 C 55.152344 107.285156 55.910156 106.402344 56.519531 105.394531 C 57.128906 104.382812 57.558594 103.300781 57.800781 102.148438 L 65.953125 105.527344 L 102.972656 120.953125 L 102.972656 147.648438 C 101.871094 148.238281 100.789062 148.859375 99.722656 149.507812 C 98.65625 150.15625 97.609375 150.835938 96.582031 151.542969 C 95.550781 152.246094 94.542969 152.980469 93.554688 153.742188 C 92.566406 154.503906 91.597656 155.292969 90.648438 156.105469 C 89.703125 156.917969 88.78125 157.757812 87.878906 158.621094 C 86.980469 159.484375 86.101562 160.375 85.25 161.285156 C 84.398438 162.199219 83.570312 163.132812 82.769531 164.089844 C 81.96875 165.046875 81.195312 166.023438 80.445312 167.023438 C 79.695312 168.019531 78.976562 169.039062 78.285156 170.078125 C 77.589844 171.117188 76.925781 172.171875 76.292969 173.246094 C 75.65625 174.320312 75.050781 175.410156 74.476562 176.519531 C 73.898438 177.625 73.355469 178.746094 72.839844 179.882812 C 72.324219 181.019531 71.839844 182.171875 71.386719 183.332031 C 70.9375 184.496094 70.515625 185.671875 70.128906 186.859375 C 69.738281 188.042969 69.382812 189.238281 69.058594 190.445312 C 68.738281 191.648438 68.445312 192.863281 68.191406 194.085938 C 67.933594 195.304688 67.710938 196.53125 67.519531 197.765625 C 67.328125 199 67.171875 200.238281 67.050781 201.476562 C 66.925781 202.71875 66.835938 203.964844 66.78125 205.210938 C 66.726562 206.457031 66.707031 207.707031 66.71875 208.953125 C 66.730469 210.199219 66.777344 211.449219 66.859375 212.691406 C 66.9375 213.9375 67.054688 215.179688 67.199219 216.417969 C 67.347656 217.660156 67.53125 218.890625 67.746094 220.121094 C 67.960938 221.351562 68.210938 222.574219 68.492188 223.789062 C 68.773438 225.003906 69.089844 226.210938 69.4375 227.410156 C 69.785156 228.609375 70.164062 229.796875 70.578125 230.976562 C 70.988281 232.152344 71.433594 233.316406 71.910156 234.472656 C 72.382812 235.625 72.890625 236.765625 73.429688 237.890625 C 73.96875 239.019531 74.535156 240.128906 75.132812 241.222656 C 75.730469 242.320312 76.359375 243.398438 77.015625 244.457031 C 77.671875 245.519531 78.359375 246.5625 79.074219 247.585938 C 79.785156 248.609375 80.527344 249.613281 81.296875 250.597656 C 82.0625 251.578125 82.859375 252.542969 83.679688 253.480469 C 84.5 254.421875 85.347656 255.339844 86.214844 256.234375 C 87.085938 257.128906 87.980469 257.996094 88.898438 258.84375 C 89.816406 259.6875 90.757812 260.507812 91.722656 261.304688 C 92.683594 262.097656 93.667969 262.867188 94.671875 263.605469 C 95.675781 264.347656 96.699219 265.058594 97.742188 265.746094 C 98.785156 266.429688 99.847656 267.085938 100.925781 267.714844 C 102.007812 268.34375 103.101562 268.941406 104.210938 269.507812 C 105.324219 270.074219 106.449219 270.613281 107.589844 271.121094 C 108.730469 271.625 109.886719 272.101562 111.050781 272.546875 C 112.21875 272.988281 113.398438 273.402344 114.585938 273.78125 C 115.777344 274.160156 116.972656 274.507812 118.183594 274.824219 C 119.390625 275.136719 120.605469 275.417969 121.828125 275.667969 C 123.050781 275.914062 124.28125 276.128906 125.515625 276.3125 C 126.75 276.492188 127.992188 276.640625 129.234375 276.753906 C 130.476562 276.871094 131.722656 276.949219 132.96875 276.996094 C 134.21875 277.042969 135.464844 277.054688 136.714844 277.035156 C 137.960938 277.011719 139.207031 276.957031 140.453125 276.867188 C 141.699219 276.777344 142.941406 276.65625 144.179688 276.5 C 145.417969 276.34375 146.648438 276.152344 147.878906 275.929688 C 149.105469 275.703125 150.328125 275.445312 151.542969 275.15625 C 152.753906 274.867188 153.960938 274.542969 155.15625 274.1875 C 156.355469 273.832031 157.539062 273.441406 158.714844 273.023438 C 159.890625 272.601562 161.054688 272.148438 162.203125 271.667969 C 163.355469 271.183594 164.492188 270.667969 165.613281 270.121094 C 166.738281 269.578125 167.84375 269 168.9375 268.394531 C 170.027344 267.789062 171.101562 267.15625 172.15625 266.492188 C 173.214844 265.828125 174.253906 265.132812 175.273438 264.414062 C 176.292969 263.691406 177.289062 262.945312 178.269531 262.167969 C 179.246094 261.394531 180.203125 260.59375 181.136719 259.765625 C 182.074219 258.941406 182.984375 258.085938 183.871094 257.210938 C 184.761719 256.335938 185.625 255.433594 186.464844 254.511719 C 189.414062 254.769531 192.273438 255.03125 194.875 255.117188 C 195.65625 255.117188 196.347656 255.203125 197.042969 255.203125 C 199.46875 255.289062 201.636719 255.289062 203.542969 255.289062 C 212.234375 255.277344 220.878906 254.644531 229.476562 253.394531 C 238.074219 252.148438 246.539062 250.292969 254.875 247.835938 C 263.207031 245.382812 271.324219 242.34375 279.226562 238.730469 C 287.125 235.113281 294.730469 230.957031 302.035156 226.257812 L 304.03125 224.957031 L 304.03125 210.828125 L 307.929688 212.910156 C 308.832031 213.390625 309.691406 213.933594 310.507812 214.550781 C 311.320312 215.164062 312.085938 215.835938 312.792969 216.570312 C 313.503906 217.304688 314.152344 218.089844 314.738281 218.921875 C 315.324219 219.757812 315.839844 220.632812 316.289062 221.550781 C 316.738281 222.46875 317.113281 223.414062 317.414062 224.386719 C 317.714844 225.363281 317.933594 226.355469 318.078125 227.367188 C 318.222656 228.375 318.289062 229.390625 318.273438 230.410156 C 318.257812 231.433594 318.164062 232.445312 317.988281 233.449219 Z M 317.988281 233.449219 " fill-opacity="1" fill-rule="nonzero"/></g></g></g></g></svg>