<svg xmlns="http://www.w3.org/2000/svg" xmlns:xlink="http://www.w3.org/1999/xlink" width="500" zoomAndPan="magnify" viewBox="0 0 375 374.999991" height="500" preserveAspectRatio="xMidYMid meet" version="1.0"><path fill="#20ab4b" d="M 375.019531 187.5 C 375.019531 190.570312 374.941406 193.636719 374.792969 196.699219 C 374.640625 199.765625 374.414062 202.824219 374.113281 205.878906 C 373.8125 208.933594 373.4375 211.980469 372.988281 215.015625 C 372.539062 218.050781 372.011719 221.074219 371.414062 224.082031 C 370.816406 227.09375 370.144531 230.085938 369.398438 233.0625 C 368.652344 236.039062 367.835938 238.996094 366.941406 241.933594 C 366.050781 244.871094 365.089844 247.785156 364.054688 250.671875 C 363.023438 253.5625 361.917969 256.425781 360.742188 259.261719 C 359.570312 262.09375 358.328125 264.898438 357.015625 267.675781 C 355.703125 270.449219 354.324219 273.1875 352.875 275.894531 C 351.429688 278.601562 349.917969 281.269531 348.339844 283.902344 C 346.761719 286.535156 345.121094 289.128906 343.414062 291.679688 C 341.710938 294.230469 339.945312 296.738281 338.117188 299.203125 C 336.289062 301.667969 334.398438 304.085938 332.453125 306.460938 C 330.507812 308.832031 328.503906 311.15625 326.441406 313.429688 C 324.378906 315.703125 322.265625 317.925781 320.09375 320.09375 C 317.925781 322.265625 315.703125 324.378906 313.429688 326.441406 C 311.15625 328.503906 308.832031 330.507812 306.460938 332.453125 C 304.085938 334.398438 301.667969 336.289062 299.203125 338.117188 C 296.738281 339.945312 294.230469 341.710938 291.679688 343.414062 C 289.128906 345.121094 286.535156 346.761719 283.902344 348.339844 C 281.269531 349.917969 278.601562 351.429688 275.894531 352.875 C 273.1875 354.324219 270.449219 355.703125 267.675781 357.015625 C 264.898438 358.324219 262.09375 359.570312 259.261719 360.742188 C 256.425781 361.917969 253.5625 363.023438 250.671875 364.054688 C 247.785156 365.089844 244.871094 366.050781 241.933594 366.941406 C 238.996094 367.835938 236.039062 368.652344 233.0625 369.398438 C 230.085938 370.144531 227.09375 370.816406 224.082031 371.414062 C 221.074219 372.011719 218.050781 372.539062 215.015625 372.988281 C 211.980469 373.4375 208.933594 373.8125 205.878906 374.113281 C 202.824219 374.414062 199.765625 374.640625 196.699219 374.792969 C 193.636719 374.941406 190.570312 375.019531 187.5 375.019531 C 184.429688 375.019531 181.363281 374.941406 178.300781 374.792969 C 175.234375 374.640625 172.175781 374.414062 169.121094 374.113281 C 166.066406 373.8125 163.019531 373.4375 159.984375 372.988281 C 156.949219 372.539062 153.925781 372.011719 150.917969 371.414062 C 147.90625 370.816406 144.914062 370.144531 141.9375 369.398438 C 138.960938 368.652344 136.003906 367.835938 133.066406 366.941406 C 130.128906 366.050781 127.214844 365.089844 124.328125 364.054688 C 121.4375 363.023438 118.574219 361.917969 115.738281 360.742188 C 112.90625 359.570312 110.101562 358.328125 107.324219 357.015625 C 104.550781 355.703125 101.8125 354.324219 99.105469 352.875 C 96.398438 351.429688 93.730469 349.917969 91.097656 348.339844 C 88.464844 346.761719 85.871094 345.121094 83.320312 343.414062 C 80.769531 341.710938 78.261719 339.945312 75.796875 338.117188 C 73.332031 336.289062 70.914062 334.398438 68.539062 332.453125 C 66.167969 330.507812 63.84375 328.503906 61.570312 326.441406 C 59.296875 324.378906 57.074219 322.265625 54.90625 320.09375 C 52.734375 317.925781 50.621094 315.703125 48.558594 313.429688 C 46.496094 311.15625 44.492188 308.832031 42.546875 306.460938 C 40.601562 304.085938 38.710938 301.667969 36.882812 299.203125 C 35.054688 296.738281 33.289062 294.230469 31.585938 291.679688 C 29.878906 289.128906 28.238281 286.535156 26.660156 283.902344 C 25.082031 281.269531 23.570312 278.601562 22.125 275.894531 C 20.675781 273.1875 19.296875 270.449219 17.984375 267.675781 C 16.671875 264.898438 15.429688 262.09375 14.257812 259.261719 C 13.082031 256.425781 11.976562 253.5625 10.945312 250.671875 C 9.910156 247.785156 8.949219 244.871094 8.054688 241.933594 C 7.164062 238.996094 6.347656 236.039062 5.601562 233.0625 C 4.855469 230.085938 4.183594 227.09375 3.585938 224.082031 C 2.988281 221.074219 2.460938 218.050781 2.011719 215.015625 C 1.5625 211.980469 1.1875 208.933594 0.886719 205.878906 C 0.585938 202.824219 0.359375 199.765625 0.207031 196.699219 C 0.0585938 193.636719 -0.0195312 190.570312 -0.0195312 187.5 C -0.0195312 184.429688 0.0585938 181.363281 0.207031 178.300781 C 0.359375 175.234375 0.585938 172.175781 0.886719 169.121094 C 1.1875 166.066406 1.5625 163.019531 2.011719 159.984375 C 2.460938 156.949219 2.988281 153.925781 3.585938 150.917969 C 4.183594 147.90625 4.855469 144.914062 5.601562 141.9375 C 6.347656 138.960938 7.164062 136.003906 8.054688 133.066406 C 8.949219 130.128906 9.910156 127.214844 10.945312 124.328125 C 11.976562 121.4375 13.082031 118.574219 14.257812 115.738281 C 15.429688 112.90625 16.671875 110.101562 17.984375 107.324219 C 19.296875 104.550781 20.675781 101.8125 22.125 99.105469 C 23.570312 96.398438 25.082031 93.730469 26.660156 91.097656 C 28.238281 88.464844 29.878906 85.871094 31.585938 83.320312 C 33.289062 80.769531 35.054688 78.261719 36.882812 75.796875 C 38.710938 73.332031 40.601562 70.914062 42.546875 68.539062 C 44.492188 66.167969 46.496094 63.84375 48.558594 61.570312 C 50.621094 59.296875 52.734375 57.074219 54.90625 54.90625 C 57.074219 52.734375 59.296875 50.621094 61.570312 48.558594 C 63.84375 46.496094 66.167969 44.492188 68.539062 42.546875 C 70.914062 40.601562 73.332031 38.710938 75.796875 36.882812 C 78.261719 35.054688 80.769531 33.289062 83.320312 31.585938 C 85.871094 29.878906 88.464844 28.238281 91.097656 26.660156 C 93.730469 25.082031 96.398438 23.570312 99.105469 22.125 C 101.8125 20.675781 104.550781 19.296875 107.324219 17.984375 C 110.101562 16.671875 112.90625 15.429688 115.738281 14.257812 C 118.574219 13.082031 121.4375 11.976562 124.328125 10.945312 C 127.214844 9.910156 130.128906 8.949219 133.066406 8.054688 C 136.003906 7.164062 138.960938 6.347656 141.9375 5.601562 C 144.914062 4.855469 147.90625 4.183594 150.917969 3.585938 C 153.925781 2.988281 156.949219 2.460938 159.984375 2.011719 C 163.019531 1.5625 166.066406 1.1875 169.121094 0.886719 C 172.175781 0.585938 175.234375 0.359375 178.300781 0.207031 C 181.363281 0.0585938 184.429688 -0.0195312 187.5 -0.0195312 C 190.570312 -0.0195312 193.636719 0.0585938 196.699219 0.207031 C 199.765625 0.359375 202.824219 0.585938 205.878906 0.886719 C 208.933594 1.1875 211.980469 1.5625 215.015625 2.011719 C 218.050781 2.460938 221.074219 2.988281 224.082031 3.585938 C 227.09375 4.183594 230.085938 4.855469 233.0625 5.601562 C 236.039062 6.347656 238.996094 7.164062 241.933594 8.054688 C 244.871094 8.949219 247.785156 9.910156 250.671875 10.945312 C 253.5625 11.976562 256.425781 13.082031 259.261719 14.257812 C 262.09375 15.429688 264.898438 16.671875 267.675781 17.984375 C 270.449219 19.296875 273.1875 20.675781 275.894531 22.125 C 278.601562 23.570312 281.269531 25.082031 283.902344 26.660156 C 286.535156 28.238281 289.128906 29.878906 291.679688 31.585938 C 294.230469 33.289062 296.738281 35.054688 299.203125 36.882812 C 301.667969 38.710938 304.085938 40.601562 306.460938 42.546875 C 308.832031 44.492188 311.15625 46.496094 313.429688 48.558594 C 315.703125 50.621094 317.925781 52.734375 320.09375 54.90625 C 322.265625 57.074219 324.378906 59.296875 326.441406 61.570312 C 328.503906 63.84375 330.507812 66.167969 332.453125 68.539062 C 334.398438 70.914062 336.289062 73.332031 338.117188 75.796875 C 339.945312 78.261719 341.710938 80.769531 343.414062 83.320312 C 345.121094 85.871094 346.761719 88.464844 348.339844 91.097656 C 349.917969 93.730469 351.429688 96.398438 352.875 99.105469 C 354.324219 101.8125 355.703125 104.550781 357.015625 107.324219 C 358.324219 110.101562 359.570312 112.90625 360.742188 115.738281 C 361.917969 118.574219 363.023438 121.4375 364.054688 124.328125 C 365.089844 127.214844 366.050781 130.128906 366.941406 133.066406 C 367.835938 136.003906 368.652344 138.960938 369.398438 141.9375 C 370.144531 144.914062 370.816406 147.90625 371.414062 150.917969 C 372.011719 153.925781 372.539062 156.949219 372.988281 159.984375 C 373.4375 163.019531 373.8125 166.066406 374.113281 169.121094 C 374.414062 172.175781 374.640625 175.234375 374.792969 178.300781 C 374.941406 181.363281 375.019531 184.429688 375.019531 187.5 Z M 375.019531 187.5 " fill-opacity="1" fill-rule="nonzero"/><path fill="#ffffff" d="M 187.5 302.726562 C 182.5 302.730469 177.515625 302.414062 172.558594 301.765625 C 167.597656 301.121094 162.699219 300.15625 157.867188 298.871094 C 153.03125 297.585938 148.300781 295.992188 143.675781 294.089844 C 139.050781 292.1875 134.566406 289.992188 130.230469 287.503906 L 76.503906 301.898438 L 90.492188 249.699219 C 89.351562 247.921875 88.257812 246.109375 87.21875 244.269531 C 86.175781 242.429688 85.183594 240.566406 84.246094 238.671875 C 83.308594 236.777344 82.421875 234.855469 81.589844 232.914062 C 80.753906 230.972656 79.976562 229.007812 79.25 227.019531 C 78.523438 225.035156 77.855469 223.03125 77.238281 221.007812 C 76.625 218.984375 76.066406 216.945312 75.5625 214.894531 C 75.0625 212.839844 74.613281 210.773438 74.226562 208.695312 C 73.835938 206.617188 73.503906 204.53125 73.230469 202.433594 C 72.957031 200.335938 72.742188 198.234375 72.582031 196.128906 C 72.421875 194.019531 72.324219 191.90625 72.28125 189.792969 C 72.238281 187.679688 72.253906 185.566406 72.328125 183.453125 C 72.402344 181.339844 72.535156 179.230469 72.726562 177.125 C 72.914062 175.019531 73.164062 172.921875 73.46875 170.828125 C 73.773438 168.738281 74.136719 166.65625 74.558594 164.582031 C 74.980469 162.511719 75.457031 160.453125 75.988281 158.40625 C 76.523438 156.359375 77.113281 154.332031 77.757812 152.316406 C 78.402344 150.304688 79.101562 148.3125 79.859375 146.335938 C 80.613281 144.363281 81.421875 142.410156 82.285156 140.480469 C 83.148438 138.546875 84.0625 136.644531 85.03125 134.761719 C 85.996094 132.882812 87.015625 131.03125 88.085938 129.207031 C 89.152344 127.382812 90.273438 125.589844 91.441406 123.828125 C 92.609375 122.066406 93.824219 120.335938 95.085938 118.640625 C 96.351562 116.945312 97.660156 115.289062 99.015625 113.664062 C 100.367188 112.039062 101.765625 110.457031 103.207031 108.910156 C 104.648438 107.363281 106.132812 105.859375 107.65625 104.394531 C 109.183594 102.929688 110.746094 101.507812 112.347656 100.128906 C 113.953125 98.75 115.589844 97.414062 117.269531 96.128906 C 118.945312 94.839844 120.65625 93.597656 122.398438 92.402344 C 124.144531 91.210938 125.917969 90.0625 127.726562 88.96875 C 129.535156 87.871094 131.371094 86.824219 133.238281 85.828125 C 135.101562 84.832031 136.992188 83.890625 138.910156 83 C 140.828125 82.109375 142.765625 81.269531 144.730469 80.484375 C 146.695312 79.699219 148.675781 78.96875 150.679688 78.296875 C 152.683594 77.621094 154.703125 77 156.742188 76.4375 C 158.78125 75.871094 160.832031 75.363281 162.898438 74.914062 C 164.960938 74.460938 167.039062 74.066406 169.125 73.730469 C 171.214844 73.394531 173.308594 73.113281 175.410156 72.890625 C 177.511719 72.671875 179.621094 72.507812 181.730469 72.402344 C 183.84375 72.296875 185.957031 72.246094 188.070312 72.257812 C 190.183594 72.269531 192.296875 72.335938 194.40625 72.464844 C 196.515625 72.589844 198.621094 72.777344 200.722656 73.019531 C 202.824219 73.261719 204.914062 73.5625 207 73.917969 C 209.082031 74.277344 211.15625 74.691406 213.214844 75.164062 C 215.277344 75.636719 217.324219 76.164062 219.355469 76.75 C 221.386719 77.332031 223.402344 77.972656 225.398438 78.667969 C 227.394531 79.363281 229.371094 80.113281 231.324219 80.917969 C 233.28125 81.722656 235.210938 82.578125 237.121094 83.492188 C 239.027344 84.402344 240.910156 85.363281 242.765625 86.378906 C 244.621094 87.390625 246.445312 88.457031 248.242188 89.570312 C 250.039062 90.683594 251.804688 91.847656 253.535156 93.058594 C 255.269531 94.269531 256.964844 95.53125 258.628906 96.835938 C 260.292969 98.140625 261.917969 99.488281 263.507812 100.882812 C 265.097656 102.277344 266.648438 103.714844 268.15625 105.195312 C 269.667969 106.675781 271.132812 108.195312 272.5625 109.757812 C 273.988281 111.316406 275.367188 112.917969 276.707031 114.554688 C 278.046875 116.191406 279.335938 117.863281 280.582031 119.570312 C 281.828125 121.277344 283.027344 123.019531 284.179688 124.792969 C 285.328125 126.566406 286.429688 128.371094 287.480469 130.207031 C 288.53125 132.039062 289.53125 133.902344 290.480469 135.792969 C 291.429688 137.679688 292.324219 139.59375 293.167969 141.535156 C 294.011719 143.472656 294.800781 145.433594 295.535156 147.414062 C 296.269531 149.398438 296.949219 151.398438 297.574219 153.417969 C 298.199219 155.4375 298.769531 157.472656 299.28125 159.523438 C 299.796875 161.574219 300.253906 163.640625 300.652344 165.714844 C 301.050781 167.792969 301.394531 169.875 301.679688 171.972656 C 301.964844 174.066406 302.191406 176.167969 302.359375 178.277344 C 302.527344 180.382812 302.640625 182.492188 302.691406 184.605469 C 302.746094 186.71875 302.738281 188.832031 302.675781 190.945312 C 302.613281 193.058594 302.492188 195.171875 302.3125 197.277344 C 302.132812 199.382812 301.894531 201.484375 301.601562 203.578125 C 301.304688 205.671875 300.953125 207.753906 300.542969 209.828125 C 300.132812 211.902344 299.667969 213.964844 299.144531 216.011719 C 298.621094 218.0625 298.039062 220.09375 297.40625 222.109375 C 296.769531 224.125 296.082031 226.125 295.335938 228.101562 C 294.589844 230.082031 293.792969 232.039062 292.9375 233.972656 C 292.085938 235.90625 291.179688 237.816406 290.222656 239.703125 C 289.265625 241.585938 288.257812 243.441406 287.195312 245.273438 C 286.136719 247.101562 285.027344 248.898438 283.867188 250.667969 C 282.707031 252.4375 281.5 254.171875 280.246094 255.875 C 278.992188 257.574219 277.691406 259.242188 276.34375 260.871094 C 275 262.5 273.609375 264.09375 272.175781 265.648438 C 270.742188 267.199219 269.265625 268.714844 267.75 270.1875 C 266.230469 271.660156 264.675781 273.085938 263.078125 274.472656 C 261.484375 275.863281 259.851562 277.203125 258.179688 278.5 C 256.511719 279.796875 254.808594 281.046875 253.066406 282.25 C 251.328125 283.453125 249.558594 284.609375 247.757812 285.714844 C 245.957031 286.820312 244.125 287.875 242.265625 288.878906 C 240.402344 289.882812 238.515625 290.835938 236.605469 291.738281 C 234.691406 292.640625 232.757812 293.488281 230.796875 294.28125 C 228.839844 295.074219 226.859375 295.816406 224.859375 296.5 C 222.859375 297.1875 220.839844 297.816406 218.804688 298.390625 C 216.773438 298.964844 214.722656 299.484375 212.660156 299.945312 C 210.597656 300.40625 208.523438 300.8125 206.4375 301.160156 C 204.351562 301.507812 202.257812 301.796875 200.15625 302.027344 C 198.054688 302.261719 195.949219 302.4375 193.835938 302.550781 C 191.726562 302.667969 189.613281 302.726562 187.5 302.726562 Z M 134.128906 261.210938 L 138.65625 264.105469 C 140.226562 265.105469 141.824219 266.058594 143.453125 266.960938 C 145.082031 267.867188 146.738281 268.71875 148.417969 269.519531 C 150.101562 270.320312 151.804688 271.070312 153.53125 271.765625 C 155.261719 272.464844 157.007812 273.105469 158.773438 273.695312 C 160.539062 274.285156 162.324219 274.820312 164.125 275.300781 C 165.921875 275.78125 167.738281 276.203125 169.5625 276.570312 C 171.386719 276.941406 173.222656 277.25 175.070312 277.507812 C 176.914062 277.761719 178.765625 277.960938 180.621094 278.101562 C 182.480469 278.246094 184.339844 278.328125 186.203125 278.355469 C 188.0625 278.382812 189.925781 278.351562 191.785156 278.265625 C 193.644531 278.179688 195.503906 278.035156 197.355469 277.832031 C 199.207031 277.632812 201.050781 277.371094 202.886719 277.058594 C 204.722656 276.742188 206.546875 276.371094 208.359375 275.945312 C 210.171875 275.519531 211.96875 275.035156 213.753906 274.5 C 215.535156 273.960938 217.300781 273.371094 219.046875 272.722656 C 220.796875 272.078125 222.519531 271.378906 224.222656 270.625 C 225.929688 269.875 227.609375 269.070312 229.261719 268.214844 C 230.917969 267.359375 232.542969 266.453125 234.140625 265.5 C 235.742188 264.542969 237.308594 263.539062 238.847656 262.488281 C 240.382812 261.433594 241.886719 260.335938 243.355469 259.191406 C 244.824219 258.046875 246.257812 256.859375 247.65625 255.628906 C 249.050781 254.394531 250.410156 253.121094 251.726562 251.804688 C 253.046875 250.488281 254.320312 249.132812 255.558594 247.738281 C 256.792969 246.34375 257.984375 244.914062 259.128906 243.445312 C 260.277344 241.980469 261.378906 240.476562 262.433594 238.941406 C 263.488281 237.40625 264.492188 235.839844 265.449219 234.242188 C 266.410156 232.648438 267.316406 231.023438 268.175781 229.367188 C 269.035156 227.714844 269.839844 226.039062 270.597656 224.335938 C 271.351562 222.632812 272.054688 220.910156 272.703125 219.164062 C 273.351562 217.417969 273.945312 215.652344 274.488281 213.871094 C 275.027344 212.089844 275.511719 210.289062 275.941406 208.476562 C 276.375 206.667969 276.746094 204.84375 277.066406 203.007812 C 277.382812 201.171875 277.644531 199.328125 277.847656 197.476562 C 278.054688 195.625 278.203125 193.769531 278.292969 191.910156 C 278.382812 190.050781 278.417969 188.1875 278.390625 186.324219 C 278.367188 184.464844 278.289062 182.601562 278.148438 180.746094 C 278.011719 178.886719 277.816406 177.035156 277.5625 175.191406 C 277.3125 173.347656 277.003906 171.511719 276.636719 169.683594 C 276.273438 167.855469 275.851562 166.042969 275.375 164.242188 C 274.898438 162.441406 274.367188 160.660156 273.78125 158.890625 C 273.195312 157.121094 272.554688 155.375 271.859375 153.644531 C 271.167969 151.917969 270.421875 150.210938 269.621094 148.527344 C 268.824219 146.847656 267.972656 145.191406 267.074219 143.558594 C 266.171875 141.929688 265.222656 140.328125 264.226562 138.753906 C 263.226562 137.183594 262.179688 135.644531 261.085938 134.136719 C 259.992188 132.628906 258.855469 131.15625 257.667969 129.71875 C 256.484375 128.28125 255.257812 126.878906 253.988281 125.519531 C 252.71875 124.15625 251.40625 122.832031 250.054688 121.550781 C 248.703125 120.269531 247.3125 119.03125 245.886719 117.835938 C 244.457031 116.640625 242.996094 115.488281 241.496094 114.382812 C 240 113.277344 238.46875 112.214844 236.902344 111.203125 C 235.339844 110.191406 233.746094 109.230469 232.125 108.316406 C 230.5 107.402344 228.851562 106.539062 227.175781 105.726562 C 225.5 104.914062 223.800781 104.152344 222.078125 103.445312 C 220.355469 102.734375 218.613281 102.082031 216.847656 101.480469 C 215.085938 100.878906 213.304688 100.332031 211.511719 99.839844 C 209.714844 99.351562 207.902344 98.914062 206.082031 98.535156 C 204.257812 98.152344 202.421875 97.828125 200.582031 97.5625 C 198.738281 97.292969 196.886719 97.082031 195.03125 96.929688 C 193.175781 96.777344 191.316406 96.679688 189.453125 96.640625 C 187.589844 96.601562 185.730469 96.617188 183.867188 96.691406 C 182.007812 96.769531 180.152344 96.898438 178.296875 97.089844 C 176.445312 97.277344 174.597656 97.523438 172.761719 97.828125 C 170.921875 98.128906 169.097656 98.488281 167.28125 98.902344 C 165.464844 99.316406 163.664062 99.789062 161.878906 100.3125 C 160.089844 100.839844 158.320312 101.421875 156.570312 102.054688 C 154.820312 102.6875 153.089844 103.375 151.378906 104.117188 C 149.671875 104.859375 147.988281 105.652344 146.328125 106.496094 C 144.667969 107.339844 143.035156 108.234375 141.429688 109.179688 C 139.824219 110.125 138.25 111.117188 136.703125 112.160156 C 135.160156 113.203125 133.648438 114.289062 132.171875 115.425781 C 130.695312 116.558594 129.253906 117.738281 127.851562 118.960938 C 126.445312 120.183594 125.078125 121.449219 123.753906 122.757812 C 122.425781 124.0625 121.140625 125.410156 119.898438 126.796875 C 118.652344 128.183594 117.453125 129.605469 116.296875 131.066406 C 115.140625 132.523438 114.027344 134.019531 112.964844 135.546875 C 111.898438 137.074219 110.882812 138.636719 109.914062 140.226562 C 108.945312 141.816406 108.027344 143.4375 107.15625 145.082031 C 106.289062 146.730469 105.46875 148.402344 104.703125 150.101562 C 103.9375 151.796875 103.222656 153.519531 102.5625 155.257812 C 101.902344 157 101.296875 158.761719 100.742188 160.539062 C 100.191406 162.320312 99.691406 164.113281 99.25 165.921875 C 98.808594 167.730469 98.421875 169.550781 98.09375 171.386719 C 97.761719 173.21875 97.488281 175.058594 97.273438 176.910156 C 97.054688 178.761719 96.894531 180.613281 96.792969 182.472656 C 96.691406 184.335938 96.644531 186.195312 96.65625 188.058594 C 96.667969 189.921875 96.734375 191.78125 96.863281 193.640625 C 96.988281 195.496094 97.171875 197.351562 97.410156 199.195312 C 97.652344 201.042969 97.945312 202.882812 98.300781 204.710938 C 98.652344 206.539062 99.0625 208.355469 99.527344 210.160156 C 99.992188 211.964844 100.511719 213.75 101.085938 215.523438 C 101.660156 217.292969 102.289062 219.046875 102.96875 220.78125 C 103.652344 222.511719 104.386719 224.222656 105.175781 225.910156 C 105.960938 227.601562 106.800781 229.261719 107.691406 230.898438 C 108.582031 232.535156 109.519531 234.140625 110.507812 235.722656 C 111.496094 237.300781 112.53125 238.847656 113.617188 240.359375 L 116.976562 245.046875 L 110.984375 267.410156 Z M 134.128906 261.210938 " fill-opacity="1" fill-rule="nonzero"/><path fill="#20ab4b" d="M 187.5 84.464844 C 185.144531 84.464844 182.796875 84.546875 180.449219 84.707031 C 178.101562 84.867188 175.761719 85.109375 173.429688 85.429688 C 171.097656 85.753906 168.78125 86.152344 166.476562 86.632812 C 164.171875 87.113281 161.886719 87.671875 159.621094 88.308594 C 157.355469 88.945312 155.113281 89.660156 152.898438 90.453125 C 150.679688 91.242188 148.492188 92.105469 146.335938 93.046875 C 144.179688 93.988281 142.054688 95 139.96875 96.085938 C 137.878906 97.171875 135.832031 98.328125 133.820312 99.554688 C 131.8125 100.78125 129.847656 102.074219 127.929688 103.433594 C 126.007812 104.796875 124.136719 106.222656 122.3125 107.710938 C 120.492188 109.199219 118.722656 110.75 117.003906 112.359375 C 115.289062 113.96875 113.628906 115.636719 112.027344 117.359375 C 110.425781 119.085938 108.882812 120.859375 107.402344 122.691406 C 105.921875 124.519531 104.507812 126.398438 103.15625 128.324219 C 101.804688 130.25 100.519531 132.222656 99.304688 134.238281 C 98.085938 136.25 96.941406 138.304688 95.863281 140.398438 C 94.789062 142.492188 93.785156 144.621094 92.855469 146.78125 C 91.925781 148.941406 91.070312 151.132812 90.289062 153.355469 C 89.507812 155.574219 88.804688 157.820312 88.179688 160.089844 C 87.554688 162.355469 87.007812 164.644531 86.535156 166.949219 C 86.066406 169.257812 85.675781 171.578125 85.367188 173.910156 C 85.054688 176.242188 84.824219 178.582031 84.675781 180.933594 C 84.527344 183.28125 84.457031 185.632812 84.46875 187.984375 C 84.476562 190.339844 84.570312 192.6875 84.742188 195.035156 C 84.914062 197.382812 85.164062 199.722656 85.496094 202.050781 C 85.828125 204.382812 86.242188 206.699219 86.734375 209 C 87.222656 211.300781 87.792969 213.582031 88.441406 215.847656 C 89.085938 218.109375 89.8125 220.347656 90.613281 222.558594 C 91.414062 224.773438 92.289062 226.957031 93.238281 229.109375 C 94.1875 231.261719 95.210938 233.382812 96.308594 235.464844 C 97.402344 237.546875 98.566406 239.589844 99.804688 241.59375 C 101.039062 243.597656 102.339844 245.554688 103.710938 247.46875 L 93.75 284.65625 L 132.097656 274.382812 C 133.777344 275.453125 135.484375 276.476562 137.222656 277.445312 C 138.960938 278.417969 140.726562 279.339844 142.515625 280.207031 C 144.308594 281.078125 146.125 281.894531 147.960938 282.65625 C 149.800781 283.421875 151.660156 284.132812 153.539062 284.789062 C 155.421875 285.445312 157.316406 286.046875 159.230469 286.589844 C 161.148438 287.136719 163.074219 287.628906 165.019531 288.0625 C 166.960938 288.496094 168.917969 288.875 170.882812 289.195312 C 172.847656 289.515625 174.820312 289.78125 176.800781 289.988281 C 178.78125 290.195312 180.765625 290.34375 182.753906 290.433594 C 184.742188 290.527344 186.734375 290.5625 188.726562 290.539062 C 190.714844 290.511719 192.703125 290.433594 194.691406 290.292969 C 196.675781 290.15625 198.65625 289.957031 200.632812 289.703125 C 202.609375 289.449219 204.574219 289.140625 206.53125 288.773438 C 208.488281 288.402344 210.433594 287.980469 212.363281 287.5 C 214.296875 287.019531 216.214844 286.484375 218.113281 285.890625 C 220.015625 285.300781 221.898438 284.652344 223.761719 283.953125 C 225.625 283.25 227.46875 282.496094 229.289062 281.691406 C 231.109375 280.882812 232.902344 280.023438 234.675781 279.113281 C 236.445312 278.199219 238.1875 277.238281 239.902344 276.226562 C 241.617188 275.210938 243.300781 274.152344 244.953125 273.039062 C 246.605469 271.929688 248.222656 270.773438 249.808594 269.570312 C 251.394531 268.363281 252.945312 267.117188 254.460938 265.820312 C 255.972656 264.527344 257.445312 263.191406 258.882812 261.8125 C 260.320312 260.433594 261.714844 259.011719 263.066406 257.550781 C 264.421875 256.09375 265.730469 254.59375 267 253.058594 C 268.265625 251.519531 269.484375 249.949219 270.660156 248.34375 C 271.835938 246.734375 272.964844 245.09375 274.046875 243.421875 C 275.125 241.75 276.15625 240.046875 277.140625 238.316406 C 278.121094 236.582031 279.050781 234.824219 279.933594 233.039062 C 280.8125 231.25 281.640625 229.441406 282.414062 227.609375 C 283.191406 225.773438 283.910156 223.917969 284.578125 222.042969 C 285.246094 220.167969 285.859375 218.273438 286.414062 216.359375 C 286.972656 214.449219 287.476562 212.523438 287.921875 210.582031 C 288.367188 208.640625 288.757812 206.691406 289.089844 204.726562 C 289.421875 202.765625 289.699219 200.792969 289.917969 198.8125 C 290.136719 196.835938 290.296875 194.851562 290.398438 192.863281 C 290.503906 190.875 290.546875 188.882812 290.535156 186.890625 C 290.523438 184.902344 290.457031 182.910156 290.328125 180.925781 C 290.203125 178.9375 290.015625 176.957031 289.773438 174.980469 C 289.53125 173.003906 289.234375 171.035156 288.878906 169.078125 C 288.519531 167.117188 288.109375 165.171875 287.640625 163.234375 C 287.171875 161.300781 286.644531 159.378906 286.066406 157.476562 C 285.484375 155.570312 284.851562 153.683594 284.160156 151.816406 C 283.472656 149.949219 282.726562 148.101562 281.929688 146.277344 C 281.132812 144.453125 280.285156 142.652344 279.382812 140.875 C 278.484375 139.101562 277.53125 137.351562 276.53125 135.632812 C 275.527344 133.910156 274.476562 132.222656 273.375 130.5625 C 272.273438 128.902344 271.128906 127.277344 269.933594 125.683594 C 268.738281 124.089844 267.496094 122.53125 266.214844 121.011719 C 264.929688 119.492188 263.601562 118.007812 262.230469 116.5625 C 260.859375 115.121094 259.445312 113.714844 257.996094 112.355469 C 256.542969 110.992188 255.050781 109.671875 253.523438 108.398438 C 251.996094 107.121094 250.429688 105.890625 248.832031 104.707031 C 247.230469 103.519531 245.597656 102.382812 243.929688 101.292969 C 242.265625 100.203125 240.570312 99.160156 238.84375 98.167969 C 237.117188 97.175781 235.363281 96.234375 233.582031 95.34375 C 231.800781 94.453125 229.996094 93.617188 228.164062 92.828125 C 226.335938 92.042969 224.484375 91.3125 222.613281 90.632812 C 220.742188 89.953125 218.851562 89.332031 216.941406 88.761719 C 215.035156 88.191406 213.113281 87.679688 211.175781 87.222656 C 209.234375 86.765625 207.285156 86.363281 205.324219 86.019531 C 203.363281 85.675781 201.394531 85.386719 199.417969 85.15625 C 197.4375 84.925781 195.457031 84.753906 193.46875 84.636719 C 191.480469 84.523438 189.492188 84.464844 187.5 84.464844 Z M 187.5 84.464844 " fill-opacity="1" fill-rule="nonzero"/><path fill="#ffffff" d="M 245.902344 233.414062 C 247.785156 228.78125 248.734375 219.5625 243.910156 216.777344 C 240.328125 214.707031 236.023438 213.40625 232.222656 211.785156 C 227.886719 209.933594 223.542969 207.6875 219.074219 206.167969 C 212.777344 204.03125 208.785156 209.605469 204.699219 213.464844 C 203.824219 214.296875 201.953125 216.875 200.589844 217.175781 C 198.894531 217.550781 196.265625 215.289062 194.847656 214.445312 C 192.203125 212.863281 189.640625 211.164062 187.152344 209.347656 C 179.355469 203.640625 172.554688 196.933594 166.746094 189.214844 C 163.945312 185.492188 160.761719 181.300781 158.886719 177 C 157.632812 174.125 159.355469 173.242188 161.300781 171.1875 C 165.238281 167.019531 171.273438 162.742188 169.183594 156.332031 C 167.800781 152.097656 165.613281 147.960938 163.859375 143.867188 C 162.121094 139.800781 160.65625 135.402344 158.574219 131.496094 C 155.855469 126.398438 148.417969 127.28125 143.828125 128.820312 C 141.691406 129.433594 139.753906 130.433594 138.019531 131.820312 C 135.265625 134.289062 133.027344 137.160156 131.308594 140.433594 C 125.195312 151.027344 127.148438 167.152344 132.992188 177.289062 C 141.242188 191.601562 148.667969 205.667969 160.730469 217.316406 C 172.523438 228.707031 187.351562 237.292969 202.007812 244.558594 C 208.929688 247.992188 216.867188 247.40625 224.378906 247.210938 C 232.089844 247.015625 242.832031 240.972656 245.902344 233.414062 Z M 245.902344 233.414062 " fill-opacity="1" fill-rule="nonzero"/></svg>