<svg xmlns="http://www.w3.org/2000/svg" xmlns:xlink="http://www.w3.org/1999/xlink" width="500" zoomAndPan="magnify" viewBox="0 0 375 374.999991" height="500" preserveAspectRatio="xMidYMid meet" version="1.0"><defs><clipPath id="8e34808860"><path d="M 0 55.546875 L 375 55.546875 L 375 319.546875 L 0 319.546875 Z M 0 55.546875 " clip-rule="nonzero"/></clipPath></defs><g clip-path="url(#8e34808860)"><path fill="#e91d00" d="M 371.253906 112.53125 C 371.253906 112.53125 367.582031 86.675781 356.347656 75.289062 C 342.105469 60.339844 326.097656 60.269531 318.789062 59.386719 C 266.289062 55.605469 187.574219 55.605469 187.574219 55.605469 L 187.425781 55.605469 C 187.425781 55.605469 108.710938 55.605469 56.210938 59.386719 C 48.902344 60.269531 32.894531 60.339844 18.652344 75.289062 C 7.417969 86.675781 3.746094 112.53125 3.746094 112.53125 C 3.746094 112.53125 0 142.867188 0 173.242188 L 0 201.707031 C 0 232.078125 3.746094 262.414062 3.746094 262.414062 C 3.746094 262.414062 7.417969 288.273438 18.652344 299.65625 C 32.933594 314.605469 51.65625 314.128906 59.992188 315.707031 C 89.988281 318.570312 187.5 319.488281 187.5 319.488281 C 187.5 319.488281 266.289062 319.378906 318.789062 315.558594 C 326.132812 314.679688 342.105469 314.605469 356.347656 299.65625 C 367.582031 288.273438 371.253906 262.414062 371.253906 262.414062 C 371.253906 262.414062 375 232.042969 375 201.707031 L 375 173.242188 C 375 142.867188 371.253906 112.53125 371.253906 112.53125 Z M 148.765625 236.191406 L 148.765625 130.785156 L 250.097656 183.671875 Z M 148.765625 236.191406 " fill-opacity="1" fill-rule="nonzero"/></g><path fill="#ffffff" d="M 148.765625 130.785156 L 148.765625 236.191406 L 250.097656 183.671875 Z M 148.765625 130.785156 " fill-opacity="1" fill-rule="nonzero"/></svg>